<svg id="圖層_1" data-name="圖層 1" xmlns="http://www.w3.org/2000/svg" viewBox="0 0 891.57 233.6"><defs><style>.cls-1{fill:#0069ac;}.cls-2{fill:#e60012;}.cls-3{fill:#231815;}</style></defs><path class="cls-1" d="M126.27,201.94A85.13,85.13,0,1,1,186.48,177a84.58,84.58,0,0,1-60.21,24.94Zm0-166.11a81,81,0,1,0,81,81,81.06,81.06,0,0,0-81-81Z"/><path class="cls-1" d="M126.09,194.46a77.84,77.84,0,1,1,77.84-77.84,77.93,77.93,0,0,1-77.84,77.84Zm0-151.88a74,74,0,1,0,74,74,74.12,74.12,0,0,0-74-74Z"/><path class="cls-1" d="M126.09,187.35a70.73,70.73,0,1,1,70.74-70.73,70.82,70.82,0,0,1-70.74,70.73Zm0-138a67.28,67.28,0,1,0,67.27,67.28,67.35,67.35,0,0,0-67.27-67.28Z"/><polygon class="cls-2" points="128.98 182.4 164.78 132.4 164.78 141.87 180.77 121.14 178.3 130.38 192.03 119.13 173.12 145.24 172.66 140.06 157.13 161.23 157.35 151.33 128.98 182.4"/><polygon class="cls-2" points="128.31 51.34 164.78 101.79 164.34 92.33 180.55 112.37 178.51 103.13 192.03 114.62 172.44 87.59 172.44 93.45 156.68 72.28 157.13 81.74 128.31 51.34"/><polygon class="cls-2" points="124.25 51.57 88.45 102.23 88.45 93.22 72.69 113.27 74.48 104.04 61.2 115.52 80.11 88.72 80.11 94.35 96.1 72.74 95.42 83.31 124.25 51.57"/><polygon class="cls-2" points="61.2 118.89 75.16 131.06 72.69 121.36 88.9 141.41 88.45 132.4 124.7 182.4 96.1 151.55 96.54 161.46 80.57 140.06 80.57 145.91 61.2 118.89"/><path class="cls-1" d="M147.09,133.27l7.1-16.79-26.11,0v-3.59h24.79l-1.76-4.47H101.86l-2,4.47,23.75,0v3.62h-25l7.25,16.83h5l-5.17-12.25H110l5.47,12.25,4.8,0L115.05,121l8.56,0v15.9H107l9,20.23,7.7,0v17.66L127,182l8.81-21.15h-4.94l-2.59,6.82V157.06h9.06l8.26-20.23-17.54-.06,0-15.83,9.75,0-5.44,12.33h5.07l5.15-12.4h5.16l-5.16,12.29Zm-31.22,11.45-1.64-3.53h9.39v3.53Zm7.71,8.14-4.19,0-1.76-3.76,6,.05Zm15.68-11.55-1.6,3.46-9.56,0v-3.43Zm-3.41,7.75-1.46,3.76-6.29,0v-3.73Z"/><path class="cls-1" d="M140,84.07h-27.5l-8.3,19.05h44.34Zm-24.51,4.4h21.7l4.4,10H111.28Z"/><polygon class="cls-1" points="126.45 52.32 114.28 80.18 138.44 80.18 131.22 63.61 128.74 69.07 131.74 75.78 120.98 75.78 128.92 58.32 126.45 52.32"/><path class="cls-3" d="M310.37,51.5c2.19,3.61-2.64,5.81-5.3,6.81C294.27,59.7,287,69.93,280.6,77.55a3.21,3.21,0,0,0,1.12,4.21c13.43-6.61,26-14.85,42.95-13.44,2.23-1.59,2.23-4.2.91-6.21-1.33-3.2-11.26-1.8-5.31-6.8,2.65-2,6.39-4.22,9.7-1.83,10.8,5.22,9.48,17.46,11,26.48-1.79,2.59-5.74,2.59-8.39,1.8A14.39,14.39,0,0,0,316.76,76C302.87,80.17,289,84.76,277.09,92.8c-5.3.58-9.93-.41-13.89-3.22-1.1-2.19-2.86-4-1.1-6.42,9.92-12.22,21.6-25.26,35-35.06C301.77,47.29,306.61,48.88,310.37,51.5Z"/><path class="cls-3" d="M330,98.59c1.12,3.83-2.63,7.85.9,10.63-1.77,6-8.18,7.42-12.57,11.63-10.9,1.81-25.35,3.61-32.4-5.41,1.77-5.22-5.3-8.41-1.54-13.45a238.65,238.65,0,0,1,31.29-10C321.81,90.79,326.23,95,330,98.59Zm-30.85,6.82a6.54,6.54,0,0,0,1.12,6.61c6.16,1.62,11.23-2,16.52-4.19.66-2.59,3.3-5,1.54-7.82C311.23,98.82,304.64,101.59,299.12,105.41Z"/><path class="cls-3" d="M405.45,42.65c0,2-2.91,5.38.44,6.58,5.36-2.19,11.85-4.78,17.88-2.38,4.9,4.17-4.69,5.15-6,8.55-6.49-3.59-12.75,2.18-18.09,5.38-2.7-.21-6-1.2-6.49-3.8.45-6.34-2.23-15.13,6.49-17.31C401.64,40.65,405.45,39.46,405.45,42.65Z"/><path class="cls-3" d="M379.08,63.54c-2,1.82-5.37.82-7.39,0-1.77-3-7.59-5.15-5.34-8.94,2-2.39,4.92-6.17,8.49-4.78C375.51,54.6,380.19,58.19,379.08,63.54Z"/><path class="cls-3" d="M441.41,62.56c-.44,8.18-10.72,9.38-16.09,13.94-1.09,3.39,4.93,7,.46,10.54-2,3-5.59,6-4.25,9.57,4.47,4,14.3,4.76,13.42,12.32-1.12,6.18-1.36,12.55-6.49,17.34-9.38,6-22.13,7.17-33.73,5.56-.91-1.77,1.33-3,2.69-3.77,8.47-2,20.32-.58,24.11-10-.22-4,2.89-8.57-.45-11.93-3.34-3.19-8.71-1.81-11.84-4.8-.67-6,10.52-11.34,2.69-15.71-3.57.2-6.94,4.57-10.29.79.7-9.15,13-7.56,18.76-12.73,2.69-1.78,4.48-4.59,4.26-6.79-10.28-4.37-18.77,4.8-26.8,10-4,1.59-7.83-5.38-10.06.6-1.34,10.74-2.25,21.9-1.12,32.84-2,2.8-6,2.8-9.16,2C369.92,104.78,371,94,364.1,86c.68-4.17,2-8.74,6.94-10.54,2-.41,4.47.59,4.47,2.39,1.33,6-3.82,13.73,3.57,16.32,2.45-6.16,2-13.13,4.46-19.12,6.71-1.59,10.28-13.12,18.8-7.75,3.77-3,7.56-10.74,15.4-7.17,7.58,6.76,10.06-10.16,18.77-2.38Z"/><path class="cls-3" d="M493.51,77.64c.61,1.76-.82,3.16-2.47,3.7-3.3-.2-6.8-.88-8.45-3.36a4.52,4.52,0,0,1,2.87-3.32A9,9,0,0,1,493.51,77.64Z"/><path class="cls-3" d="M519.51,47.19c-1.06,6.54-15.77,4-11,13.34,9.4.68,22.37-4.18,29.75,2.09,3.13,3.1,8.09,6.66,6,10.77-4.39,3.07-8.27,8-14.39,8.36-1.63-.31-3.7-1-4.46-2.45.48-4,10.11-7.36,5.31-12.09-6.52-2.72-16.73-1.81-22.21,2.45,1.61,5.07-2.43,11,2.33,14.55,6-2.38-1.75-12.3,7.65-11,2.61,2,4.57,4.73,3.11,7.65-1.28,1.77-3.67,3.81-1.72,6,7.24,4-2.21,11,2.85,16.47.14,6.85-15.53-.75-11.65,8.77,5.77,5.24,15.18,1.89,22.74,3,1.29,3,1,7.4-3.47,8.37-9.15-1-21.56,1.49-25.44-7.46,4.23-6.9-14.08-8.26-2.47-13,.63-1.37-.78-2-1.75-2.79-4.23,1.56-3.64,8.57-10,5.66-3.28-1.73-5-4.52-4.24-7.23,1-7.28,10.74-8.14,15.77-13.17-2.28-3.9,1.23-11.12-4.17-14.27-7.22,1.32-13.58,6-20.89,6-3.06,2.62-.09,7.25-3.87,9.32-4.94,1.2-7.66-2.85-11.15-4.38-.07-6.1,4.89-11.3,10.65-14.82,1.82-.1,3.84-.58,5.08,1.08.29,1.68-2.55,3.74.25,5.11,5.16-5.78,13.57-6.4,20.73-8.85,2.87-2.06,1.33-5.61.31-7.82-4.72-3.37-15.51-.36-15.19-7.44,4.56-4.22,12.3-.42,17.4-2.76C506.9,45.91,515.56,41.1,519.51,47.19ZM509.33,93.82a2.73,2.73,0,0,0,3.72,2.12,3.07,3.07,0,0,0,1.67-3.34C513.69,90.19,508.46,90.84,509.33,93.82Zm-9.44-1c-1.23.29-2.2,1.38-1.61,2.63.26.82,1.47.49,2.3.42,1.93.6,1.9-1.3,1.61-2.11C502.38,92.5,500.66,92.8,499.89,92.82Z"/><path class="cls-3" d="M613,47c-.22,3.79-1.59,7.21-1.15,11.4,7.36,2.61,18.38,3.2,19.75,12,.47,14,1.62,30-13.78,36.59-3,1.22-8.26,1.81-11-.59-1.39-1-2.54-2.21-2.05-3.81,3.44-4.4,11.47-.8,13.75-6.79,1.39-9,4.59-18.4-.69-26.81a10.13,10.13,0,0,0-6-2.42c-7.58,16.41-4.37,36.62-17.66,50.83-3.9,3.6-8.05,8.21-14.24,4.79-1.59-.58-3-2.2-4.38-3.2,8.5-6.8,17.23-15.4,19.78-25,1.59-7.82,6.18-15.81,4.33-23.6-3.42-1.83-8.92,2.58-12.62-1-1.6-.82-3-2-2.73-3.81,3.88-4.82,12.14-2,16-6.22.68-4.39-4.12-8.6,0-12.39C603.18,44,610.75,44,613,47Z"/><path class="cls-3" d="M746.53,72.11c1.11,3.87.43,8.77-1.58,11.07-4.24.28-7.37-2.3-10.73-4.1-4-6.44-7.63-13.65-7.63-21.12,5.82-5.4,11.66,3.36,17.25,6.18Z"/><path class="cls-3" d="M695.05,63.64c.65,13.87-7.59,25-13,37.06-2.22,3.06-5.81,6.41-9.62,4.11C659,93,680.49,85.23,683.18,74.68,685.65,69.79,688.55,60.79,695.05,63.64Z"/><path class="cls-3" d="M716,74.68c2.47,9.53-11.87,11.84-6.94,20.34,3.13.24,6-2.07,6.94-5.67-.66-4.36,2.7-6.17,5.81-6.17,9.4.54,14.78,12.37,18.35,20.58-.44,3.1-3.78,4.65-5.8,6.19-6.92,1-6.27-8.75-11.43-11.32-9.39,4.38-17.68,15.19-28.86,10.05-3.81-2.33-4.49-7-1.81-10.54,8.08-8.52,12.54-19.06,17.92-28.35C713.34,69,714.24,72.37,716,74.68Z"/><path class="cls-3" d="M838.89,54.07c9.08,8.21,5,21.19,7.5,31.79-4.33,12.38,8.61,35.17-12.95,37-11.1,1-23.1-1.42-33.3-5.41-.44-1.19,1.15-1.59,1.82-2.4,10.86-2,27.65,5.2,33.1-6.18,0-16.4.67-33.37-3.88-48.38-2.25-5-8.6-4.77-13.58-4-7.71-1.37-16.31,10.6-21.07,0-.47-10.35,12.89-1.57,19-5.58C823.28,50.28,833.24,47.28,838.89,54.07Z"/><path class="cls-3" d="M823.72,67.27c-11.55,7.89-26.52,9.91-40.32,13.54-4.34-1.4-10.43-2.21-12.06-6.67,4.78-3.43,10.44.41,15.9-1.4,11.54-2.87,22.44-6.69,35.34-6.89Z"/><path class="cls-3" d="M819.18,80.42c-.68,4.87-4.3,10.31,2.72,13.14.68,1.4-.89,2.44-2,2.84-7.48,1-15.4.8-20.61,6.26-6.36,0-13.37-.81-15.85-6.66.65-3.44-1.84-8.91,3.16-9.7,10.86-1.64,19.49-13,31.69-7.3Zm-18.36,3.83c-3.62.83-4.76,4.45-5,7.29.9,2.42,3.64,2.63,6.12,2.42a7.74,7.74,0,0,0,5.44-7.66C806.28,84.25,803.32,84.25,800.82,84.25Z"/><path class="cls-3" d="M279.73,157.79v24.42a3.86,3.86,0,0,0,.07.76,1.08,1.08,0,0,0,.35.54,2.52,2.52,0,0,0,.79.39,9.24,9.24,0,0,0,1.44.3.75.75,0,0,1,.69.79,3.66,3.66,0,0,1,0,.42,1.78,1.78,0,0,1-.07.46c-1-.06-2.05-.11-3.18-.16s-2.12-.07-3-.07-1.9,0-3,.07l-3.13.16a1.34,1.34,0,0,1-.12-.46c0-.19,0-.32,0-.42a1.07,1.07,0,0,1,.12-.53c.07-.14.28-.24.62-.3a4.73,4.73,0,0,0,2.16-.63,1.67,1.67,0,0,0,.44-1.32V157.79H269.8a8.3,8.3,0,0,0-2.21.25,4.6,4.6,0,0,0-1.58.79,5.31,5.31,0,0,0-1.2,1.39,18.49,18.49,0,0,0-1.09,2.07.7.7,0,0,1-.7.42,2.15,2.15,0,0,1-.65-.12,3.57,3.57,0,0,1-.56-.21c.22-.74.4-1.4.56-2a15.74,15.74,0,0,0,.37-1.7c.12-.71.22-1.34.28-1.9a5,5,0,0,1,.24-1.21.73.73,0,0,1,.74-.41c.33,0,1,0,2,.14s2.22.13,3.65.13H284c1.39,0,2.59,0,3.6-.13s1.69-.14,2.06-.14a.8.8,0,0,1,.75.41,4.87,4.87,0,0,1,.2,1.21,14.59,14.59,0,0,0,.31,1.9c.09.56.21,1.12.34,1.7s.34,1.23.59,2c-.16.07-.35.13-.59.21a1.88,1.88,0,0,1-.62.12.78.78,0,0,1-.74-.42,20.31,20.31,0,0,0-1.09-2.07,5.53,5.53,0,0,0-1.21-1.39A4.6,4.6,0,0,0,286,158a8.06,8.06,0,0,0-2.16-.25Z"/><path class="cls-3" d="M306.43,175.43h-9.75l-2.41,6.45a1.37,1.37,0,0,0-.19.51,2.07,2.07,0,0,0-.05.42,1,1,0,0,0,.49.84,5.67,5.67,0,0,0,2,.55c.42.06.64.36.64.89a4.23,4.23,0,0,1-.09.78l-2.65-.16c-.93,0-1.84-.07-2.73-.07-.62,0-1.27,0-1.95.05s-1.45.09-2.28.18a.8.8,0,0,1-.09-.41v-.37q0-.89.6-.93a8.32,8.32,0,0,0,2.07-.61,2.33,2.33,0,0,0,1-1.11L302.2,155.7a1.19,1.19,0,0,1,1.12-.79,3.54,3.54,0,0,1,.46,0l.51.07,11.2,27.58a1.87,1.87,0,0,0,1.06,1,6.72,6.72,0,0,0,1.72.49.82.82,0,0,1,.69.93,4.36,4.36,0,0,1-.09.83l-2.92-.16c-1,0-1.86-.07-2.69-.07l-1.59,0-1.9.06c-.65,0-1.29.06-1.93.08s-1.16,0-1.6.06a.91.91,0,0,1-.09-.41v-.37a1,1,0,0,1,.17-.63.68.68,0,0,1,.34-.26,6.94,6.94,0,0,0,1.79-.53,1,1,0,0,0,.58-.91,2.39,2.39,0,0,0-.14-.69Zm-.89-2.32-3.94-10.45-4,10.45Z"/><path class="cls-3" d="M330.21,182.21a3.22,3.22,0,0,0,.07.76,1,1,0,0,0,.37.54,2.7,2.7,0,0,0,.88.39,11.88,11.88,0,0,0,1.55.3c.32.06.47.33.47.79,0,.1,0,.23,0,.42a2.27,2.27,0,0,1-.08.46c-1-.06-2.05-.11-3.17-.16s-2.13-.07-3-.07-1.9,0-3,.07l-3.15.16a.9.9,0,0,1-.1-.46V185c0-.49.16-.75.47-.79a11.54,11.54,0,0,0,1.55-.3,2.39,2.39,0,0,0,.86-.39,1.12,1.12,0,0,0,.37-.54,2.33,2.33,0,0,0,.1-.76V159a2.4,2.4,0,0,0-.1-.77,1.05,1.05,0,0,0-.37-.53,2.23,2.23,0,0,0-.86-.4,11.54,11.54,0,0,0-1.55-.3c-.31-.09-.47-.36-.47-.79v-.42a1.25,1.25,0,0,1,.1-.51c1,.06,2,.12,3.15.16s2.12.07,3,.07,1.87,0,3-.07,2.19-.1,3.17-.16a3.89,3.89,0,0,1,.08.51c0,.19,0,.33,0,.42,0,.43-.15.7-.47.79a11.88,11.88,0,0,0-1.55.3,2.5,2.5,0,0,0-.88.4.9.9,0,0,0-.37.53,3.31,3.31,0,0,0-.07.77Z"/><path class="cls-3" d="M359.31,155l.42-.07a2.06,2.06,0,0,1,.33,0,.7.7,0,0,1,.53.16,1.91,1.91,0,0,1,.35.63l7.62,20.05,5.66-16.39a2.94,2.94,0,0,0,.23-1,1,1,0,0,0-.6-.95,7.42,7.42,0,0,0-2.09-.49c-.38,0-.56-.32-.56-.88a1.83,1.83,0,0,1,0-.21,1,1,0,0,0,0-.26l0-.37c.53.06,1.28.12,2.25.16s1.89.07,2.72.07,1.75,0,2.55,0a17.72,17.72,0,0,0,2.14-.19l.05.37a1.27,1.27,0,0,0,0,.28c0,.09,0,.17,0,.23q0,.88-.6.93a6.69,6.69,0,0,0-2.11.47,2,2,0,0,0-1,1.25l-9.79,27.39-.33,0h-.32a.76.76,0,0,1-.5-.14,2.35,2.35,0,0,1-.39-.65l-7.57-20.15-7.38,20.89a2.06,2.06,0,0,1-.35,0h-.3a.8.8,0,0,1-.53-.14,1.72,1.72,0,0,1-.35-.65l-10.17-26.88a1.87,1.87,0,0,0-.81-1,6.56,6.56,0,0,0-2.34-.53c-.41,0-.61-.36-.61-1v-.4a.75.75,0,0,1,.09-.39l1.58.1c.59,0,1.19,0,1.79.06l1.76.05c.57,0,1.08,0,1.51,0,1,0,2.14,0,3.35-.07s2.28-.1,3.25-.16c0,.16.05.31.07.47s0,.27,0,.37c0,.56-.2.85-.61.88a6,6,0,0,0-2.08.46,1,1,0,0,0-.61.89.93.93,0,0,0,.05.34,2.79,2.79,0,0,0,.14.4L352,175.8Z"/><path class="cls-3" d="M394.93,175.43h-9.75l-2.42,6.45a1.55,1.55,0,0,0-.18.51,2.07,2.07,0,0,0-.05.42,1,1,0,0,0,.48.84,5.75,5.75,0,0,0,2,.55c.43.06.65.36.65.89a4.23,4.23,0,0,1-.09.78l-2.65-.16c-.93,0-1.84-.07-2.74-.07-.62,0-1.27,0-2,.05s-1.44.09-2.28.18a.91.91,0,0,1-.09-.41v-.37c0-.59.2-.9.61-.93a8.22,8.22,0,0,0,2.06-.61,2.28,2.28,0,0,0,1-1.11L390.7,155.7a1.19,1.19,0,0,1,1.11-.79,3.62,3.62,0,0,1,.47,0l.51.07L404,182.58a1.92,1.92,0,0,0,1.07,1,6.5,6.5,0,0,0,1.72.49.82.82,0,0,1,.69.93,4.36,4.36,0,0,1-.09.83l-2.93-.16c-1,0-1.85-.07-2.69-.07l-1.58,0-1.9.06c-.65,0-1.3.06-1.93.08s-1.17,0-1.6.06a.8.8,0,0,1-.09-.41v-.37a1,1,0,0,1,.16-.63.72.72,0,0,1,.34-.26,7,7,0,0,0,1.8-.53,1,1,0,0,0,.57-.91,2.39,2.39,0,0,0-.14-.69Zm-.89-2.32-3.94-10.45-4.05,10.45Z"/><path class="cls-3" d="M433.83,175.52V159a1.54,1.54,0,0,0-.7-1.44,6.77,6.77,0,0,0-2.46-.65.78.78,0,0,1-.6-.88v-.37a1.31,1.31,0,0,1,.09-.47c.77.1,1.53.16,2.27.19s1.62,0,2.61,0,1.84,0,2.55,0,1.42-.09,2.14-.19c0,.16,0,.31.07.47s0,.27,0,.37c0,.52-.19.82-.56.88a4.84,4.84,0,0,0-2.08.65,1.56,1.56,0,0,0-.56,1.35v27.16a4.69,4.69,0,0,1-.63.07l-.58,0a1.72,1.72,0,0,1-.7-.16,2.32,2.32,0,0,1-.78-.68l-18.3-23.21v20.06a3.22,3.22,0,0,0,.07.76.83.83,0,0,0,.37.51,2.83,2.83,0,0,0,.88.37c.39.11.91.23,1.56.35a.83.83,0,0,1,.39.21,1,1,0,0,1,.16.68,3.51,3.51,0,0,1-.09.78l-2.18-.16c-.68,0-1.47-.07-2.37-.07s-1.76,0-2.58.07-1.57.1-2.25.16a.91.91,0,0,1-.09-.41v-.37a1,1,0,0,1,.17-.65.67.67,0,0,1,.39-.24,5.57,5.57,0,0,0,2.23-.69,1.52,1.52,0,0,0,.55-1.3v-23.5a1.41,1.41,0,0,0-.48-1.14,5.15,5.15,0,0,0-2.21-.62c-.37-.09-.56-.39-.56-.88v-.21a.91.91,0,0,1,.05-.26l.05-.37c.43,0,.85.06,1.25.07l1.21.07c.68,0,1.37.06,2.06.07s1.26,0,1.7,0a8,8,0,0,1,1.76.12,1.61,1.61,0,0,1,.74.44Z"/><path class="cls-3" d="M462.76,173v8.91a1.55,1.55,0,0,0,.9,1.51,10.51,10.51,0,0,0,3.09.72c.43.06.65.37.65.93a4.36,4.36,0,0,1-.09.83c-.9-.06-2-.11-3.37-.16s-2.81-.07-4.39-.07c-1.11,0-2.18,0-3.23.07s-2,.1-2.9.16a.91.91,0,0,1-.09-.41v-.37c0-.53.17-.83.52-.89.65-.12,1.17-.24,1.57-.35a3.2,3.2,0,0,0,.93-.37,1.07,1.07,0,0,0,.44-.51,2.05,2.05,0,0,0,.12-.76V159a1.47,1.47,0,0,0-.68-1.35,7,7,0,0,0-2.57-.65.75.75,0,0,1-.37-.28,1.14,1.14,0,0,1-.14-.65v-.42a.62.62,0,0,1,.09-.37c.86.06,1.86.12,3,.16s2.14.07,3,.07h7c3.3,0,5.89.75,7.75,2.23a7.54,7.54,0,0,1,2.78,6.22,8.87,8.87,0,0,1-.69,3.46,8.15,8.15,0,0,1-2.07,2.88,10.37,10.37,0,0,1-3.32,2,12.32,12.32,0,0,1-4.45.75Zm1.39-2.33a6.91,6.91,0,0,0,4.57-1.43c1.17-1,1.74-2.59,1.74-4.88a7.55,7.55,0,0,0-1.37-4.83q-1.36-1.71-4.94-1.71h-1.39v12.85Z"/><path class="cls-3" d="M480.08,170.55a15.12,15.12,0,0,1,1.23-6.08,16.16,16.16,0,0,1,3.36-5,15.9,15.9,0,0,1,5-3.36,15.3,15.3,0,0,1,6.11-1.23,16.35,16.35,0,0,1,6.22,1.16,14.87,14.87,0,0,1,8.31,8.21,16.18,16.18,0,0,1,1.21,6.27,15.31,15.31,0,0,1-1.24,6.11,15.69,15.69,0,0,1-3.36,5,15.87,15.87,0,0,1-5,3.34,15.5,15.5,0,0,1-6.13,1.23,16.51,16.51,0,0,1-6.22-1.16,14.83,14.83,0,0,1-5-3.25,15.12,15.12,0,0,1-3.3-4.95A16.06,16.06,0,0,1,480.08,170.55Zm16.38,13.24a7.19,7.19,0,0,0,3.53-.87,8.44,8.44,0,0,0,2.72-2.34,11.41,11.41,0,0,0,1.77-3.48,14.45,14.45,0,0,0,.62-4.27,28.87,28.87,0,0,0-.62-6.13,16.07,16.07,0,0,0-1.91-4.9,9.76,9.76,0,0,0-3.2-3.25,8.4,8.4,0,0,0-4.49-1.18,7.32,7.32,0,0,0-3.15.72,7.85,7.85,0,0,0-2.7,2.09,10.52,10.52,0,0,0-1.85,3.32,12.92,12.92,0,0,0-.7,4.41,28.26,28.26,0,0,0,.68,6.36,17,17,0,0,0,1.95,5,9.84,9.84,0,0,0,3.13,3.3A7.67,7.67,0,0,0,496.46,183.79Z"/><path class="cls-3" d="M534.81,155l.42-.07a2,2,0,0,1,.33,0,.7.7,0,0,1,.53.16,2.11,2.11,0,0,1,.35.63l7.62,20.05,5.66-16.39a2.94,2.94,0,0,0,.23-1,1,1,0,0,0-.6-.95,7.42,7.42,0,0,0-2.1-.49c-.37,0-.55-.32-.55-.88a.82.82,0,0,1,0-.21,1,1,0,0,0,0-.26l0-.37c.53.06,1.28.12,2.25.16s1.89.07,2.72.07,1.75,0,2.55,0a17.72,17.72,0,0,0,2.14-.19l0,.37a1.27,1.27,0,0,0,0,.28c0,.09,0,.17,0,.23q0,.88-.6.93a6.62,6.62,0,0,0-2.11.47,2,2,0,0,0-1,1.25L543,186.15l-.32,0h-.33a.75.75,0,0,1-.49-.14,1.94,1.94,0,0,1-.39-.65l-7.57-20.15-7.38,20.89-.27,0h-.38a.85.85,0,0,1-.54-.14,1.88,1.88,0,0,1-.35-.65l-10.16-26.88a1.92,1.92,0,0,0-.81-1,6.56,6.56,0,0,0-2.34-.53c-.41,0-.61-.36-.61-1v-.4a.75.75,0,0,1,.09-.39l1.58.1c.58,0,1.18,0,1.78.06l1.77.05c.57,0,1.08,0,1.51,0,1,0,2.14,0,3.34-.07s2.29-.1,3.25-.16c0,.16.06.31.08.47s0,.27,0,.37c0,.56-.2.85-.61.88a5.94,5.94,0,0,0-2.08.46,1,1,0,0,0-.61.89.93.93,0,0,0,0,.34c0,.11.07.24.13.4l6.09,16.76Z"/><path class="cls-3" d="M568.19,157.79V169h6.55a1.19,1.19,0,0,0,1.2-.71,9.14,9.14,0,0,0,.56-2.35.62.62,0,0,1,.28-.49,1.36,1.36,0,0,1,.61-.11,4.27,4.27,0,0,1,.44,0,1.64,1.64,0,0,1,.43.07c0,.71-.11,1.54-.15,2.48s-.07,1.74-.07,2.39,0,1.22,0,2,.09,1.62.18,2.58a.86.86,0,0,1-.43.11l-.44,0c-.56,0-.85-.22-.89-.65a8.23,8.23,0,0,0-.62-2.4,1.24,1.24,0,0,0-1.14-.63h-6.55V181.7c0,.65.4,1.08,1.21,1.3a18.2,18.2,0,0,0,4.09.32h2a6.46,6.46,0,0,0,2.34-.37,5.46,5.46,0,0,0,1.69-1,6.89,6.89,0,0,0,1.3-1.57c.37-.61.74-1.28,1.12-2,.09-.22.31-.33.65-.33a1.57,1.57,0,0,1,.56.14l.65.28c-.07.25-.14.48-.21.7s-.15.43-.21.65a5.36,5.36,0,0,0-.37,1.11c-.1.4-.19.73-.28,1s-.13.65-.21,1-.16.76-.23,1.11-.15.68-.23,1-.14.46-.17.55a.74.74,0,0,1-.74.37c-.25,0-.61,0-1.07,0s-1-.06-1.51-.07l-1.65-.07c-.55,0-1-.05-1.43-.05H564.9c-.9,0-1.93,0-3.09.07s-2.21.1-3.14.16a1.08,1.08,0,0,1-.09-.48V185c0-.47.16-.71.47-.75a10.72,10.72,0,0,0,2.52-.69,1.32,1.32,0,0,0,.78-1.3V159a1.73,1.73,0,0,0-.15-.77,1.14,1.14,0,0,0-.53-.51,4.92,4.92,0,0,0-1-.37c-.42-.11-.95-.22-1.6-.35-.31-.09-.47-.37-.47-.84v-.44a1.23,1.23,0,0,1,.09-.44c1.33.1,2.51.16,3.53.19s1.91,0,2.65,0h9.51c1.4,0,2.6,0,3.6-.13s1.7-.14,2.07-.14a.79.79,0,0,1,.74.41A6.82,6.82,0,0,1,581,157a17.66,17.66,0,0,0,.32,2.07c.09.52.21,1,.33,1.53a18.68,18.68,0,0,0,.55,1.81,4.23,4.23,0,0,1-.51.19,1.82,1.82,0,0,1-.56.09.8.8,0,0,1-.74-.42,20.06,20.06,0,0,0-1.09-2.06,5.39,5.39,0,0,0-1.2-1.4,4.22,4.22,0,0,0-1.58-.76,8.65,8.65,0,0,0-2.17-.23Z"/><path class="cls-3" d="M598.37,172.18h-2v9.7a1.55,1.55,0,0,0,.9,1.51,10.42,10.42,0,0,0,3.09.72c.43.06.65.37.65.93a5.36,5.36,0,0,1-.09.83c-.9-.06-2-.11-3.37-.16s-2.81-.07-4.39-.07c-1.11,0-2.18,0-3.23.07s-2,.1-2.9.16a.91.91,0,0,1-.09-.41v-.37c0-.53.17-.83.51-.89.65-.12,1.17-.24,1.58-.35a3.2,3.2,0,0,0,.93-.37,1.12,1.12,0,0,0,.44-.51,2.28,2.28,0,0,0,.12-.76V159a1.47,1.47,0,0,0-.68-1.35,7,7,0,0,0-2.57-.65.75.75,0,0,1-.37-.28,1.05,1.05,0,0,1-.15-.65v-.42a.62.62,0,0,1,.1-.37c.86.06,1.86.12,3,.16s2.14.07,3,.07h7a14.62,14.62,0,0,1,4.4.61,9.59,9.59,0,0,1,3.32,1.72,7.52,7.52,0,0,1,2.1,2.64,8,8,0,0,1,.71,3.39,7.27,7.27,0,0,1-1.51,4.48,9.09,9.09,0,0,1-4.15,3L612.07,182a4.53,4.53,0,0,0,1.93,1.67,12.74,12.74,0,0,0,2,.69.68.68,0,0,1,.37.21.94.94,0,0,1,.13.58v.42a1.25,1.25,0,0,1-.09.46c-.34,0-.82,0-1.43-.06s-1.27,0-1.93-.08l-2-.06-1.65,0a3.06,3.06,0,0,1-1.95-.81,10.6,10.6,0,0,1-1.9-2.16Zm-.6-2.32a11.51,11.51,0,0,0,2.6-.28,5,5,0,0,0,2-1,4.23,4.23,0,0,0,1.28-1.79,7.86,7.86,0,0,0,.44-2.83,6.87,6.87,0,0,0-1.39-4.55c-.93-1.12-2.57-1.67-4.92-1.67h-1.39v12.07Z"/><path class="cls-3" d="M644.06,186.2a17.67,17.67,0,0,1-6.82-1.21,13,13,0,0,1-4.83-3.32,13.92,13.92,0,0,1-2.86-5,19.15,19.15,0,0,1-.95-6.15,17.33,17.33,0,0,1,.93-5.52,14.23,14.23,0,0,1,2.92-5,15.17,15.17,0,0,1,5.11-3.67,17.86,17.86,0,0,1,7.42-1.41,28.27,28.27,0,0,1,4.44.32,42.93,42.93,0,0,1,4.49,1c.05.83.18,1.9.37,3.2a29.9,29.9,0,0,0,.78,3.81l-.6.11a3,3,0,0,1-.55.07,1.62,1.62,0,0,1-.63-.11.67.67,0,0,1-.35-.49,12.48,12.48,0,0,0-1.17-2.58,5.55,5.55,0,0,0-1.55-1.67,5.84,5.84,0,0,0-2.11-.9,12.52,12.52,0,0,0-2.84-.28,10.81,10.81,0,0,0-4.43.85,8.64,8.64,0,0,0-3.22,2.47,11.05,11.05,0,0,0-2,3.85,18.06,18.06,0,0,0-.67,5.08,18.76,18.76,0,0,0,.81,5.62,15,15,0,0,0,2.23,4.51,10.42,10.42,0,0,0,3.36,3,8.69,8.69,0,0,0,4.23,1.07,12.7,12.7,0,0,0,3.18-.35,6.13,6.13,0,0,0,3.9-2.9,16.6,16.6,0,0,0,1.24-2.6,1,1,0,0,1,.43-.54,1.28,1.28,0,0,1,.63-.16,2.74,2.74,0,0,1,.58.07,3,3,0,0,1,.58.16c-.18.53-.38,1.12-.58,1.79s-.41,1.34-.62,2-.42,1.39-.59,2.09-.31,1.37-.43,2a44.76,44.76,0,0,1-4.65.6C647.68,186.14,646,186.2,644.06,186.2Z"/><path class="cls-3" d="M658.36,170.55a15.12,15.12,0,0,1,1.23-6.08,16.16,16.16,0,0,1,3.36-5,15.83,15.83,0,0,1,5-3.36,15.22,15.22,0,0,1,6.1-1.23,16.35,16.35,0,0,1,6.22,1.16,15,15,0,0,1,5,3.25,15.38,15.38,0,0,1,3.32,5,16.18,16.18,0,0,1,1.2,6.27,15.3,15.3,0,0,1-1.23,6.11,15.64,15.64,0,0,1-8.38,8.31,15.43,15.43,0,0,1-6.13,1.23,16.54,16.54,0,0,1-6.22-1.16,14.83,14.83,0,0,1-5-3.25,15.26,15.26,0,0,1-3.29-4.95A15.89,15.89,0,0,1,658.36,170.55Zm16.38,13.24a7.19,7.19,0,0,0,3.53-.87,8.44,8.44,0,0,0,2.72-2.34,11.19,11.19,0,0,0,1.77-3.48,14.45,14.45,0,0,0,.63-4.27,28.85,28.85,0,0,0-.63-6.13,15.81,15.81,0,0,0-1.91-4.9,9.76,9.76,0,0,0-3.2-3.25,8.37,8.37,0,0,0-4.48-1.18,7.36,7.36,0,0,0-3.16.72,7.82,7.82,0,0,0-2.69,2.09,10.54,10.54,0,0,0-1.86,3.32,13.17,13.17,0,0,0-.69,4.41,28.27,28.27,0,0,0,.67,6.36,17,17,0,0,0,1.95,5,9.84,9.84,0,0,0,3.13,3.3A7.7,7.7,0,0,0,674.74,183.79Z"/><path class="cls-3" d="M722.1,156.35a1.33,1.33,0,0,1,.61-.65,5.18,5.18,0,0,1,2-.24c.25,0,.61,0,1.09,0l1.55-.05q.84,0,1.68-.06l1.44-.1a1.31,1.31,0,0,1,.09.47v.37c0,.49-.17.79-.51.88-.62.09-1.11.19-1.47.28a2.42,2.42,0,0,0-.8.34,1,1,0,0,0-.38.49,2.17,2.17,0,0,0-.09.65c0,.06,0,.65.07,1.77s.12,2.49.21,4.13.19,3.42.28,5.34.19,3.74.28,5.45.16,3.21.23,4.49.1,2,.14,2.32a2.31,2.31,0,0,0,.11.76,1.33,1.33,0,0,0,.42.54,2.89,2.89,0,0,0,.86.39,11.07,11.07,0,0,0,1.44.3c.34.06.51.36.51.89a4.23,4.23,0,0,1-.09.78l-2.95-.16c-.89,0-1.88-.07-3-.07s-2.12,0-3.28.07-2.13.1-2.9.16a3.51,3.51,0,0,1-.09-.78,1.09,1.09,0,0,1,.16-.7.43.43,0,0,1,.3-.19,6.15,6.15,0,0,0,2.46-.76,1.62,1.62,0,0,0,.56-1.37c0-.09,0-.59-.07-1.49s-.09-2-.14-3.34-.11-2.77-.19-4.32-.15-3-.23-4.36-.14-2.54-.18-3.53-.09-1.6-.12-1.81l-9.52,22.14a4.53,4.53,0,0,1-.39.63.54.54,0,0,1-.44.21h-.28a.67.67,0,0,1-.28,0l-10.77-25.81c0,.4-.07,1.21-.12,2.44s-.11,2.62-.19,4.2-.15,3.24-.23,5-.15,3.37-.2,4.85-.12,2.73-.17,3.74-.07,1.55-.07,1.65a2.41,2.41,0,0,0,.09.71,1.12,1.12,0,0,0,.38.54,2.21,2.21,0,0,0,.83.39,15.63,15.63,0,0,0,1.54.35c.33.06.5.36.5.89a2.25,2.25,0,0,1,0,.34,3.64,3.64,0,0,1-.07.44l-2.32-.16c-.71,0-1.42-.07-2.14-.07s-1.39,0-2.32.07-1.76.1-2.5.16a.8.8,0,0,1-.1-.41v-.37a1.08,1.08,0,0,1,.15-.68.65.65,0,0,1,.37-.21,6.54,6.54,0,0,0,2.08-.74,1.64,1.64,0,0,0,.75-1.25c0-.25,0-1,.09-2.26s.14-2.74.23-4.45.19-3.55.28-5.48.18-3.73.25-5.39.15-3,.19-4.15.07-1.71.07-1.77a1.3,1.3,0,0,0-.51-1.14,6.61,6.61,0,0,0-2.23-.62c-.34,0-.51-.32-.51-.88v-.37a1.31,1.31,0,0,1,.09-.47l1.67.1q1.08,0,2.19.06l2.09.05c.65,0,1.11,0,1.39,0a10.38,10.38,0,0,1,1.3.07,4.88,4.88,0,0,1,.74.17.65.65,0,0,1,.39.27l.22.38,8.63,20.84Z"/><path class="cls-3" d="M745.23,173v8.91a1.55,1.55,0,0,0,.9,1.51,10.51,10.51,0,0,0,3.09.72c.43.06.65.37.65.93a4.36,4.36,0,0,1-.09.83c-.9-.06-2-.11-3.37-.16s-2.81-.07-4.39-.07c-1.11,0-2.18,0-3.23.07s-2,.1-2.9.16a.91.91,0,0,1-.09-.41v-.37c0-.53.17-.83.51-.89.66-.12,1.18-.24,1.58-.35a3.2,3.2,0,0,0,.93-.37,1.07,1.07,0,0,0,.44-.51,2.05,2.05,0,0,0,.12-.76V159a1.47,1.47,0,0,0-.68-1.35,7,7,0,0,0-2.57-.65.75.75,0,0,1-.37-.28,1.14,1.14,0,0,1-.14-.65v-.42a.62.62,0,0,1,.09-.37c.86.06,1.86.12,3,.16s2.14.07,3,.07h7c3.3,0,5.89.75,7.75,2.23a7.54,7.54,0,0,1,2.78,6.22,8.87,8.87,0,0,1-.69,3.46,8.15,8.15,0,0,1-2.07,2.88,10.37,10.37,0,0,1-3.32,2,12.32,12.32,0,0,1-4.45.75Zm1.39-2.33a6.93,6.93,0,0,0,4.57-1.43c1.17-1,1.74-2.59,1.74-4.88a7.55,7.55,0,0,0-1.37-4.83q-1.37-1.71-4.94-1.71h-1.39v12.85Z"/><path class="cls-3" d="M774.94,175.43h-9.75l-2.41,6.45a1.37,1.37,0,0,0-.19.51,2.07,2.07,0,0,0-.05.42,1,1,0,0,0,.49.84,5.6,5.6,0,0,0,2,.55c.43.06.65.36.65.89a4.23,4.23,0,0,1-.09.78l-2.65-.16c-.93,0-1.84-.07-2.73-.07-.62,0-1.28,0-1.95.05s-1.45.09-2.28.18a.8.8,0,0,1-.09-.41v-.37q0-.89.6-.93a8.47,8.47,0,0,0,2.07-.61,2.33,2.33,0,0,0,1-1.11l11.18-26.74a1.19,1.19,0,0,1,1.11-.79,3.62,3.62,0,0,1,.47,0l.51.07L784,182.58a1.87,1.87,0,0,0,1.06,1,6.72,6.72,0,0,0,1.72.49.82.82,0,0,1,.69.93,4.36,4.36,0,0,1-.09.83l-2.92-.16c-1,0-1.86-.07-2.69-.07l-1.59,0-1.9.06c-.65,0-1.29.06-1.93.08s-1.16,0-1.6.06a.91.91,0,0,1-.09-.41v-.37a1,1,0,0,1,.16-.63.75.75,0,0,1,.35-.26,6.94,6.94,0,0,0,1.79-.53,1,1,0,0,0,.58-.91,2.39,2.39,0,0,0-.14-.69Zm-.89-2.32-3.94-10.45-4,10.45Z"/><path class="cls-3" d="M813.85,175.52V159a1.56,1.56,0,0,0-.7-1.44,6.9,6.9,0,0,0-2.47-.65.78.78,0,0,1-.6-.88v-.37a1.14,1.14,0,0,1,.1-.47c.77.1,1.52.16,2.27.19s1.61,0,2.61,0,1.83,0,2.55,0,1.42-.09,2.13-.19a3.81,3.81,0,0,1,.07.47,2.62,2.62,0,0,1,0,.37c0,.52-.18.82-.55.88a4.85,4.85,0,0,0-2.09.65,1.59,1.59,0,0,0-.56,1.35v27.16a4.49,4.49,0,0,1-.63.07l-.57,0a1.69,1.69,0,0,1-.7-.16,2.33,2.33,0,0,1-.79-.68l-18.3-23.21v20.06a3.22,3.22,0,0,0,.07.76.89.89,0,0,0,.38.51,2.76,2.76,0,0,0,.87.37c.4.11.91.23,1.56.35a.74.74,0,0,1,.39.21,1,1,0,0,1,.17.68,4.23,4.23,0,0,1-.09.78l-2.18-.16c-.69,0-1.47-.07-2.37-.07s-1.76,0-2.58.07-1.57.1-2.25.16a.8.8,0,0,1-.1-.41v-.37a1,1,0,0,1,.17-.65.73.73,0,0,1,.39-.24,5.51,5.51,0,0,0,2.23-.69,1.52,1.52,0,0,0,.56-1.3v-23.5a1.42,1.42,0,0,0-.49-1.14,5.09,5.09,0,0,0-2.2-.62c-.38-.09-.56-.39-.56-.88v-.21a.66.66,0,0,1,0-.26l0-.37c.44,0,.85.06,1.26.07l1.2.07c.68,0,1.37.06,2.07.07s1.26,0,1.69,0a8.06,8.06,0,0,1,1.77.12,1.72,1.72,0,0,1,.74.44Z"/><path class="cls-3" d="M832.93,172.92l-7.38-14.07a2.93,2.93,0,0,0-1.28-1.34,7.16,7.16,0,0,0-2-.56c-.37,0-.56-.34-.56-.93v-.21a.62.62,0,0,1,0-.25l0-.33c.68.06,1.56.12,2.62.16s2.24.07,3.51.07c.44,0,.95,0,1.56,0l1.83-.05q.93,0,1.74-.06l1.33-.1a4.68,4.68,0,0,1,.09.58v.26c0,.52-.19.82-.56.88a5,5,0,0,0-1.67.39.76.76,0,0,0-.46.68,2.16,2.16,0,0,0,.32,1l5.43,10.77,5.34-10a3.1,3.1,0,0,0,.51-1.48.85.85,0,0,0-.51-.81,7.12,7.12,0,0,0-1.77-.49c-.4-.06-.6-.36-.6-.88a5.68,5.68,0,0,1,.14-.84c.65.06,1.46.12,2.44.16s1.83.07,2.57.07,1.47,0,2.26,0,1.59-.09,2.39-.19a2.17,2.17,0,0,1,.1.53v.31c0,.56-.19.85-.56.88a7.19,7.19,0,0,0-2.32.6,3.13,3.13,0,0,0-1.12,1.16l-7.66,14.12v9.24a2,2,0,0,0,.14.83,1.18,1.18,0,0,0,.51.56,3.41,3.41,0,0,0,1,.39,15.28,15.28,0,0,0,1.64.31.8.8,0,0,1,.4.2,1,1,0,0,1,.16.68,1.83,1.83,0,0,1,0,.21,1,1,0,0,0,0,.25l-.05.33-1.4,0c-.42,0-.86,0-1.3-.08-.74-.06-1.5-.09-2.29-.11s-1.45,0-2,0-1.2,0-1.92,0-1.43,0-2.11.11c-.41,0-.8.06-1.19.08l-1.18,0,0-.33a.79.79,0,0,1,0-.25V185a1,1,0,0,1,.17-.68.77.77,0,0,1,.39-.2c.65-.13,1.19-.24,1.63-.35a4.35,4.35,0,0,0,1-.37,1.15,1.15,0,0,0,.51-.54,2.14,2.14,0,0,0,.14-.83Z"/></svg>